<svg viewBox="0 0 320 320" xmlns="http://www.w3.org/2000/svg">
  <defs>
    <filter id="r-glow" x="-40%" y="-40%" width="180%" height="180%">
      <feGaussianBlur in="SourceGraphic" stdDeviation="2" result="b1"/>
      <feGaussianBlur in="SourceGraphic" stdDeviation="4" result="b2"/>
      <feColorMatrix in="b2" type="matrix" values="0 0 0 0 0  0 0 0 0 0.9  0 0 0 0 1  0 0 0 0.4 0" result="c2"/>
      <feMerge><feMergeNode in="c2"/><feMergeNode in="b1"/><feMergeNode in="SourceGraphic"/></feMerge>
    </filter>
    <filter id="r-glow-m" x="-40%" y="-40%" width="180%" height="180%">
      <feGaussianBlur in="SourceGraphic" stdDeviation="3" result="b"/>
      <feColorMatrix in="b" type="matrix" values="0 0 0 0 1  0 0 0 0 0  0 0 0 0 0.55  0 0 0 0.35 0" result="m"/>
      <feMerge><feMergeNode in="m"/><feMergeNode in="SourceGraphic"/></feMerge>
    </filter>
    <radialGradient id="r-bg" cx="50%" cy="50%" r="50%">
      <stop offset="0%" stop-color="rgba(0,229,255,0.03)"/>
      <stop offset="100%" stop-color="transparent"/>
    </radialGradient>
  </defs>

  <!-- Background ambient -->
  <circle cx="160" cy="160" r="140" fill="url(#r-bg)"/>

  <!-- 5 concentric octagons (grid levels: 20/40/60/80/100%) -->
  <!-- Level 100% -->
  <polygon points="160,40 264,80 284,160 264,240 160,280 56,240 36,160 56,80"
    fill="none" stroke="rgba(0,229,255,0.05)" stroke-width="0.5"/>
  <!-- Level 80% -->
  <polygon points="160,64 243,96 259,160 243,224 160,256 77,224 61,160 77,96"
    fill="none" stroke="rgba(0,229,255,0.05)" stroke-width="0.5"/>
  <!-- Level 60% -->
  <polygon points="160,88 222,112 234,160 222,208 160,232 98,208 86,160 98,112"
    fill="none" stroke="rgba(0,229,255,0.05)" stroke-width="0.5"/>
  <!-- Level 40% -->
  <polygon points="160,112 201,128 209,160 201,192 160,208 119,192 111,160 119,128"
    fill="none" stroke="rgba(0,229,255,0.04)" stroke-width="0.5"/>
  <!-- Level 20% -->
  <polygon points="160,136 180,144 184,160 180,176 160,184 140,176 136,160 140,144"
    fill="none" stroke="rgba(0,229,255,0.03)" stroke-width="0.5"/>

  <!-- Axis lines (8 axes) -->
  <g stroke="rgba(0,229,255,0.06)" stroke-width="0.5">
    <line x1="160" y1="160" x2="160" y2="40"/>
    <line x1="160" y1="160" x2="264" y2="80"/>
    <line x1="160" y1="160" x2="284" y2="160"/>
    <line x1="160" y1="160" x2="264" y2="240"/>
    <line x1="160" y1="160" x2="160" y2="280"/>
    <line x1="160" y1="160" x2="56" y2="240"/>
    <line x1="160" y1="160" x2="36" y2="160"/>
    <line x1="160" y1="160" x2="56" y2="80"/>
  </g>

  <!-- Target polygon (dashed, magenta) -->
  <polygon points="160,48 258,84 276,160 258,236 160,272 62,236 44,160 62,84"
    fill="none" stroke="#FF008D" stroke-width="1" stroke-dasharray="6 4" opacity="0.4" filter="url(#r-glow-m)"/>

  <!-- Data polygon (cyan, filled) -->
  <polygon points="160,62 238,104 252,168 230,228 160,250 85,218 56,148 74,94"
    fill="rgba(0,229,255,0.08)" stroke="#00E5FF" stroke-width="1.5" stroke-linejoin="round" filter="url(#r-glow)"/>

  <!-- Data points with glow -->
  <g filter="url(#r-glow)">
    <circle cx="160" cy="62" r="3.5" fill="#091833" stroke="#00E5FF" stroke-width="1.5"/>
    <circle cx="238" cy="104" r="3.5" fill="#091833" stroke="#00E5FF" stroke-width="1.5"/>
    <circle cx="252" cy="168" r="3.5" fill="#091833" stroke="#00E5FF" stroke-width="1.5"/>
    <circle cx="230" cy="228" r="3.5" fill="#091833" stroke="#00E5FF" stroke-width="1.5"/>
    <circle cx="160" cy="250" r="3.5" fill="#091833" stroke="#00E5FF" stroke-width="1.5"/>
    <circle cx="85" cy="218" r="3.5" fill="#091833" stroke="#00E5FF" stroke-width="1.5"/>
    <circle cx="56" cy="148" r="3.5" fill="#091833" stroke="#00E5FF" stroke-width="1.5"/>
    <circle cx="74" cy="94" r="3.5" fill="#091833" stroke="#00E5FF" stroke-width="1.5"/>
  </g>

  <!-- Inner dot data points (solid fill) -->
  <g>
    <circle cx="160" cy="62" r="1.5" fill="#00E5FF"/>
    <circle cx="238" cy="104" r="1.5" fill="#00E5FF"/>
    <circle cx="252" cy="168" r="1.5" fill="#00E5FF"/>
    <circle cx="230" cy="228" r="1.5" fill="#00E5FF"/>
    <circle cx="160" cy="250" r="1.5" fill="#00E5FF"/>
    <circle cx="85" cy="218" r="1.5" fill="#00E5FF"/>
    <circle cx="56" cy="148" r="1.5" fill="#00E5FF"/>
    <circle cx="74" cy="94" r="1.5" fill="#00E5FF"/>
  </g>

  <!-- Axis labels -->
  <text x="160" y="28" text-anchor="middle" font-family="Inter,sans-serif" font-size="8" fill="rgba(255,255,255,0.5)">Vitesse</text>
  <text x="278" y="78" text-anchor="start" font-family="Inter,sans-serif" font-size="8" fill="rgba(255,255,255,0.5)">Mobile</text>
  <text x="296" y="164" text-anchor="start" font-family="Inter,sans-serif" font-size="8" fill="rgba(255,255,255,0.5)">Contenu</text>
  <text x="278" y="248" text-anchor="start" font-family="Inter,sans-serif" font-size="8" fill="rgba(255,255,255,0.5)">Backlinks</text>
  <text x="160" y="300" text-anchor="middle" font-family="Inter,sans-serif" font-size="8" fill="rgba(255,255,255,0.5)">Technique</text>
  <text x="40" y="248" text-anchor="end" font-family="Inter,sans-serif" font-size="8" fill="rgba(255,255,255,0.5)">UX</text>
  <text x="24" y="164" text-anchor="end" font-family="Inter,sans-serif" font-size="8" fill="rgba(255,255,255,0.5)">S&#233;curit&#233;</text>
  <text x="40" y="78" text-anchor="end" font-family="Inter,sans-serif" font-size="8" fill="rgba(255,255,255,0.5)">Maillage</text>

  <!-- Score values next to points -->
  <text x="160" y="55" text-anchor="middle" font-family="Orbitron,sans-serif" font-size="7" fill="#00E5FF" opacity="0.7">88</text>
  <text x="248" y="100" text-anchor="start" font-family="Orbitron,sans-serif" font-size="7" fill="#00E5FF" opacity="0.7">72</text>
  <text x="260" y="172" text-anchor="start" font-family="Orbitron,sans-serif" font-size="7" fill="#00E5FF" opacity="0.7">48</text>
  <text x="238" y="238" text-anchor="start" font-family="Orbitron,sans-serif" font-size="7" fill="#00E5FF" opacity="0.7">45</text>
  <text x="160" y="264" text-anchor="middle" font-family="Orbitron,sans-serif" font-size="7" fill="#00E5FF" opacity="0.7">68</text>
  <text x="76" y="226" text-anchor="end" font-family="Orbitron,sans-serif" font-size="7" fill="#00E5FF" opacity="0.7">55</text>
  <text x="48" y="144" text-anchor="end" font-family="Orbitron,sans-serif" font-size="7" fill="#00E5FF" opacity="0.7">82</text>
  <text x="66" y="88" text-anchor="end" font-family="Orbitron,sans-serif" font-size="7" fill="#00E5FF" opacity="0.7">38</text>

  <!-- Legend -->
  <g transform="translate(95,308)">
    <circle cx="0" cy="0" r="3" fill="#00E5FF" opacity="0.7"/>
    <text x="6" y="3" font-family="Inter,sans-serif" font-size="7" fill="rgba(255,255,255,0.45)">Actuel</text>
    <circle cx="60" cy="0" r="3" fill="none" stroke="#FF008D" stroke-width="1" stroke-dasharray="2 1.5"/>
    <text x="66" y="3" font-family="Inter,sans-serif" font-size="7" fill="rgba(255,255,255,0.45)">Objectif</text>
  </g>

  <!-- HUD corners (Arwes Nefrex-inspired asymmetric) -->
  <path d="M 6,18 L 6,6 L 18,6" fill="none" stroke="rgba(0,229,255,0.15)" stroke-width="1"/>
  <path d="M 302,6 L 314,6 L 314,18" fill="none" stroke="rgba(0,229,255,0.15)" stroke-width="1"/>
  <path d="M 6,302 L 6,314 L 18,314" fill="none" stroke="rgba(0,229,255,0.1)" stroke-width="1"/>
  <path d="M 302,314 L 314,314 L 314,302" fill="none" stroke="rgba(0,229,255,0.1)" stroke-width="1"/>
</svg>
